<svg width="1200" height="630" viewBox="0 0 1200 630" fill="none" xmlns="http://www.w3.org/2000/svg">
  <rect width="1200" height="630" fill="#0d0d10"/>
  <rect x="1" y="1" width="1198" height="628" rx="30" stroke="#252230" stroke-width="2"/>

  <circle cx="1050" cy="82" r="330" fill="#8150ce" opacity="0.14"/>
  <circle cx="170" cy="540" r="300" fill="#4f46e5" opacity="0.08"/>
  <circle cx="930" cy="560" r="230" fill="#8150ce" opacity="0.08"/>

  <g opacity="0.82">
    <circle cx="152" cy="112" r="3" fill="#8150ce"/>
    <circle cx="316" cy="76" r="2.5" fill="#8150ce"/>
    <circle cx="552" cy="500" r="3" fill="#8150ce"/>
    <circle cx="704" cy="126" r="2.5" fill="#8150ce"/>
    <circle cx="1038" cy="468" r="3" fill="#8150ce"/>
    <line x1="152" y1="112" x2="316" y2="76" stroke="#8150ce" stroke-opacity="0.22"/>
    <line x1="316" y1="76" x2="704" y2="126" stroke="#8150ce" stroke-opacity="0.12"/>
    <line x1="552" y1="500" x2="1038" y2="468" stroke="#8150ce" stroke-opacity="0.12"/>
  </g>

  <g transform="translate(52 132)">
    <g transform="scale(0.31)">
      <path d="m466.33 258.321c0-59.864 48.218-108.393 108.065-108.393 51.251 0 94.192 35.591 105.469 83.412-43.044 30.383-135.492 62.97-203.383 71.478-6.699-14.091-10.151-29.856-10.151-46.497zm202.215-81.739c-8.871-9.64-22.325-19.152-35.375-26.654 95.092-7.322 136.733 14.598 141.96 44.424 6.082 55.049-95.987 92.266-97.478 96.942-13.948 44.056-54.904 75.42-103.257 75.42-34.963 0-66.058-16.563-85.872-42.272 71.472-6.765 153.386-41.495 192.457-63.462 13.143-8.217 44.605-31.185 39.63-54.19-9.87-28.078-33.668-25.228-52.065-30.208zm-344.626 199.017c-17.239-56.768 61.743-138.983 142.411-177.694-11.832 21.589-14.508 37.316-14.508 37.316-16.273 13.282-89.282 66.778-74.61 122.608 49.505 138.978 632.694-35.132 584.442-246.993-35.816-98.46-238.236-107.572-472.527-33.096-234.291 73.144-484.139 295.922-427.227 457.783 75.081 175.765 461.071 119.985 476 117.277 21.4-4.996 28.603 24.716 0 33.762-233.701 37.346-480.9 4.884-530.183-127.939-52.591-185.94 212.253-414.294 476.08-501.095 221.802-80.848 487.49-84.002 531.15 39.092 63.274 252.735-638.362 452.886-691.028 278.979zm333.967 250.547c54.073-13.012 113.314-37.213 136.785-46.2 31.139-8.987 40.175 17.755 17.764 28.431-47.871 21.283-88.992 35.115-147.443 49.754-34.444 6.976-31.831-25.378-7.106-31.985zm280.675-124.385c13.095-10.402 36.539 6.102 19.541 23.1-7.169 5.745-20.182 15.387-30.2 19.546-17.777 9.326-35.793-10.659-23.093-20.567 7.597-5.973 22.081-13.934 33.752-22.079z" fill="#a78bfa"/>
    </g>
  </g>

  <g transform="translate(455 116)">
    <text x="4" y="33" font-family="Nunito, Inter, Arial, sans-serif" font-size="28" font-weight="850" fill="#a78bfa">For React</text>

    <text x="0" y="150" font-family="Nunito, Inter, Arial, sans-serif" font-size="92" font-weight="900" fill="#ffffff">Expressive MVC</text>

    <text x="4" y="224" font-family="Inter, Arial, sans-serif" font-size="36" font-weight="680" fill="#c7c1d1">Class-based state for modern React apps.</text>
    <text x="4" y="280" font-family="Inter, Arial, sans-serif" font-size="31" font-weight="520" fill="#a9a4b3">Model data, behavior, and lifecycle together.</text>
    <text x="4" y="323" font-family="Inter, Arial, sans-serif" font-size="31" font-weight="520" fill="#a9a4b3">Components stay thin. Classes do the work.</text>

    <text x="4" y="390" font-family="Inter, Arial, sans-serif" font-size="25" font-weight="650" fill="#a78bfa">A state model that feels native to React.</text>
  </g>
</svg>
