<svg height="701" viewBox="0 0 1019 701" width="1019" xmlns="http://www.w3.org/2000/svg"><path d="m466.33 258.321c0-59.864 48.218-108.393 108.065-108.393 51.251 0 94.192 35.591 105.469 83.412-43.044 30.383-135.492 62.97-203.383 71.478-6.699-14.091-10.151-29.856-10.151-46.497zm202.215-81.739c-8.871-9.64-22.325-19.152-35.375-26.654 95.092-7.322 136.733 14.598 141.96 44.424 6.082 55.049-95.987 92.266-97.478 96.942-13.948 44.056-54.904 75.42-103.257 75.42-34.963 0-66.058-16.563-85.872-42.272 71.472-6.765 153.386-41.495 192.457-63.462 13.143-8.217 44.605-31.185 39.63-54.19-9.87-28.078-33.668-25.228-52.065-30.208zm-344.626 199.017c-17.239-56.768 61.743-138.983 142.411-177.694-11.832 21.589-14.508 37.316-14.508 37.316-16.273 13.282-89.282 66.778-74.61 122.608 49.505 138.978 632.694-35.132 584.442-246.993-35.816-98.46-238.236-107.572-472.527-33.096-234.291 73.144-484.139 295.922-427.227 457.783 75.081 175.765 461.071 119.985 476 117.277 21.4-4.996 28.603 24.716 0 33.762-233.701 37.346-480.9 4.884-530.183-127.939-52.591-185.94 212.253-414.294 476.08-501.095 221.802-80.848 487.49-84.002 531.15 39.092 63.274 252.735-638.362 452.886-691.028 278.979zm333.967 250.547c54.073-13.012 113.314-37.213 136.785-46.2 31.139-8.987 40.175 17.755 17.764 28.431-47.871 21.283-88.992 35.115-147.443 49.754-34.444 6.976-31.831-25.378-7.106-31.985zm280.675-124.385c13.095-10.402 36.539 6.102 19.541 23.1-7.169 5.745-20.182 15.387-30.2 19.546-17.777 9.326-35.793-10.659-23.093-20.567 7.597-5.973 22.081-13.934 33.752-22.079z" fill="#8150ce"/></svg>